# xmcd
#
# Track frame offsets:
#	150
#	27457
#	54635
#	70432
#	95720
#	126365
#
# Disc length: 2027 seconds
#
# Revision: 1
# Processed by: cddbd v1.5.1PL0 Copyright (c) Steve Scherf et al.
# Submitted via: CDex 1.50Beta5
#
DISCID=5a07e906
DTITLE=小林靖宏(COBA) - 風のナヴィガトーレ
DYEAR=1900
DGENRE=Unclassifiable
TTITLE0=プシュケ
TTITLE1=L'HOMME/時間を止めて
TTITLE2=最後のオリーヴ
TTITLE3=希望色の夢-SAN BOJE NADA-
TTITLE4=TANGO-眠らない夜のために-
TTITLE5=僕が鬼
EXTD=
EXTT0=
EXTT1=
EXTT2=
EXTT3=
EXTT4=
EXTT5=
PLAYORDER=
